# xmcd CD database file
#
# Track frame offsets:
#	150
#	16473
#	34742
#	58514
#	80160
#	101978
#	115784
#	131787
#	146069
#	171437
#
# Disc length: 2543 seconds
#
# Revision: 0
# Processed by: cddbd v1.5.2PL0 Copyright (c) Steve Scherf et al.
# Submitted via: cdripper 1,0,33,916
#
DISCID=9209ed0a
DTITLE=Strange Inside - The Lost Tapes
DYEAR=1996
DGENRE=New Age
TTITLE0=The Flyer
TTITLE1=Forever
TTITLE2=Tschako
TTITLE3=Timewalker
TTITLE4=The Flash
TTITLE5=Lubi's Theme
TTITLE6=Black and White
TTITLE7=Midnight Music
TTITLE8=The Run
TTITLE9=Way Of Life
EXTD=YEAR: 1996
EXTT0=
EXTT1=
EXTT2=
EXTT3=
EXTT4=
EXTT5=
EXTT6=
EXTT7=
EXTT8=
EXTT9=
PLAYORDER=
